<?xml version="1.0" encoding="UTF-8"?>
<svg width="79px" height="79px" viewBox="0 0 79 79" version="1.1" xmlns="http://www.w3.org/2000/svg" xmlns:xlink="http://www.w3.org/1999/xlink">
    <!-- Generator: Sketch 50.2 (55047) - http://www.bohemiancoding.com/sketch -->
    <title>Fill 1</title>
    <desc>Created with Sketch.</desc>
    <defs></defs>
    <g id="Page-1" stroke="none" stroke-width="1" fill="none" fill-rule="evenodd">
        <g id="Artboard-1" fill="#FFFFFF">
            <path d="M52.8973,27.3854 C53.6603,26.5874 53.6333,25.3214 52.8353,24.5574 C52.0393,23.7934 50.7733,23.8204 50.0083,24.6184 L38.7373,36.8354 L27.4563,25.0454 C26.6633,24.2764 25.3973,24.2984 24.6283,25.0914 C23.8603,25.8844 23.8813,27.1504 24.6763,27.9204 L36.0233,39.7784 L25.1043,51.6144 C24.3413,52.4114 24.3683,53.6774 25.1663,54.4424 C25.9623,55.2074 27.2283,55.1804 27.9933,54.3824 L38.7933,42.6744 L50.5443,54.9544 C51.3383,55.7224 52.6043,55.7024 53.3733,54.9084 C54.1413,54.1154 54.1203,52.8494 53.3253,52.0804 L41.5083,39.7304 L52.8973,27.3854 Z M39.5003,78.9994 C17.6843,78.9994 0.0003,61.3144 0.0003,39.5004 C0.0003,17.6844 17.6843,0.0004 39.5003,0.0004 C61.3163,0.0004 79.0013,17.6844 79.0013,39.5004 C79.0013,61.3144 61.3163,78.9994 39.5003,78.9994 Z" id="Fill-1"></path>
        </g>
    </g>
</svg>