<?xml version="1.0" encoding="UTF-8"?>
<svg width="87px" height="89px" viewBox="0 0 87 89" version="1.1" xmlns="http://www.w3.org/2000/svg" xmlns:xlink="http://www.w3.org/1999/xlink">
    <!-- Generator: Sketch 50.2 (55047) - http://www.bohemiancoding.com/sketch -->
    <title>Fill-1</title>
    <desc>Created with Sketch.</desc>
    <defs></defs>
    <g id="Page-1" stroke="none" stroke-width="1" fill="none" fill-rule="evenodd">
        <g id="筹码-足球" fill="#FFFFFF" fill-rule="nonzero">
            <path d="M85.3223879,34.275 C85.3223879,34.275 87.4743879,45.5 85.5323879,53.954 C85.0973879,54.018 82.7523879,53.253 82.7523879,53.253 C82.7523879,53.253 84.3053879,40.102 82.4953879,36.335 C82.1873879,34.673 85.3223879,34.275 85.3223879,34.275 Z M70.9203879,75.072 C72.2253879,74.017 74.0443879,76.631 74.0443879,76.631 C74.0443879,76.631 65.2553879,83.821 56.9653879,86.052 C56.7043879,85.691 56.2733879,83.239 56.2733879,83.239 C56.2733879,83.239 68.4813879,78.456 70.9203879,75.072 Z M15.8583879,74.461 C15.8583879,74.461 26.2263879,82.548 30.3523879,82.905 C31.9203879,83.488 30.6523879,86.417 30.6523879,86.417 C30.6523879,86.417 20.0203879,82.536 13.8393879,76.517 C14.0073879,76.105 15.8583879,74.461 15.8583879,74.461 Z M3.61438786,51.845 C3.87938786,53.515 0.733387858,53.826 0.733387858,53.826 C0.733387858,53.826 -1.11461214,42.543 1.05638786,34.148 C1.49338786,34.096 3.81538786,34.926 3.81538786,34.926 C3.81538786,34.926 1.90738786,48.029 3.61438786,51.845 Z M16.6913879,13.581 C15.4033879,14.657 13.5443879,12.072 13.5443879,12.072 C13.5443879,12.072 22.2203879,4.743 30.4743879,2.381 C30.7413879,2.737 31.2093879,5.183 31.2093879,5.183 C31.2093879,5.183 19.0773879,10.159 16.6913879,13.581 Z M70.6843879,14.083 C70.6843879,14.083 60.3413879,5.964 56.2173879,5.594 C54.6503879,5.005 55.9283879,2.081 55.9283879,2.081 C55.9283879,2.081 66.5473879,5.995 72.7093879,12.034 C72.5393879,12.445 70.6843879,14.083 70.6843879,14.083 Z M61.4663879,54.283 C62.9473879,51.58 63.8523879,48.515 64.0583879,45.256 L58.9473879,38.919 L50.7713879,41.772 L48.2123879,49.827 L53.1763879,56.32 L60.6713879,53.812 L61.4663879,54.283 Z M51.1503879,24.089 L43.7463879,26.988 L43.7463879,35.737 L50.4493879,40.718 L58.6903879,37.845 L59.0143879,29.9 C56.8853879,27.384 54.2033879,25.377 51.1503879,24.089 Z M39.0803879,50.458 L34.1613879,57.059 L38.5533879,64.312 L47.8203879,64.312 L52.3273879,56.997 L47.3283879,50.458 L39.0803879,50.458 Z M42.6683879,26.988 L35.2633879,24.091 C32.1183879,25.418 29.3533879,27.505 27.1963879,30.13 L27.6453879,38.218 L35.9873879,40.704 L42.6683879,35.739 L42.6683879,26.988 Z M24.8873879,54.18 L25.9263879,53.651 L33.3263879,56.362 L38.2013879,49.824 L35.6363879,41.745 L27.3123879,39.269 L22.3723879,45.586 C22.6143879,48.681 23.4903879,51.594 24.8873879,54.18 Z M43.2073879,66.367 C31.0793879,66.367 21.2123879,56.277 21.2123879,43.872 C21.2123879,31.467 31.0793879,21.377 43.2073879,21.377 C55.3363879,21.377 65.2033879,31.467 65.2033879,43.872 C65.2033879,56.277 55.3363879,66.367 43.2073879,66.367 Z M43.0713879,18.003 C29.1153879,18.003 17.8033879,29.551 17.8033879,43.797 C17.8033879,58.043 29.1153879,69.591 43.0713879,69.591 C57.0283879,69.591 68.3413879,58.043 68.3413879,43.797 C68.3413879,29.551 57.0283879,18.003 43.0713879,18.003 Z M71.5595703,44.629 C71.3494487,49.0956667 71.7913879,51.64 72.8853879,52.262 C74.0113879,52.902 81.1463879,54.559 85.6013879,55.774 C83.6093879,63.094 79.7903879,69.648 74.6813879,74.913 C71.8623879,71.697 66.114668,65.718 67.034668,66.447 C66.679668,65.788 61.7743204,68.0627873 58.78125,69.6220703 C55.7881796,71.1813533 53.0357982,74.0335261 53.019043,74.247 C52.906043,75.654 54.3473879,82.117 55.0363879,86.572 C51.3983879,87.571 47.5763879,88.11 43.6253879,88.11 C39.7413879,88.11 35.9773879,87.591 32.3953879,86.626 C33.2383879,82.782 35.4063879,72.997 35.3583879,74.247 C35.5710545,73.795 33.3270545,72.2533568 28.6263879,69.6220703 C24.9450545,67.2732995 22.5683879,66.4282474 21.4963879,67.0869141 C20.4533879,67.7279141 16.2043879,72.002 12.9873879,75.351 C7.63438786,69.985 3.65038786,63.224 1.61238786,55.651 C5.47538786,54.466 14.5833879,51.694 13.5063879,52.254 C13.9990545,52.2193333 14.3152846,49.6776667 14.4550781,44.629 C14.9239513,39.757 14.6113879,37.01 13.5173879,36.388 C12.4453879,35.778 5.92038786,34.242 1.45238786,33.046 C3.39138786,25.432 7.29038786,18.615 12.5743879,13.176 C15.4643879,15.922 22.5253879,22.657 21.4963879,21.986 C21.9103879,22.61 25.3627895,20.8637718 28.6263879,18.9672852 C32.1627895,16.9122718 35.1143879,15.988 35.0963879,14.083 C35.0843879,12.819 33.0843879,6.153 31.8853879,1.633 C35.6223879,0.578 39.5553879,0 43.6253879,0 C47.4093879,0 51.0813879,0.491 54.5823879,1.41 C53.7553879,4.87 51.2073879,15.454 51.2813879,14.159 C51.0600545,14.6056667 53.0294096,16.2084284 57.1894531,18.9672852 C61.1700763,21.7757617 63.7027212,22.861 64.7873879,22.223 C65.9163879,21.561 71.0413879,16.081 74.3363879,12.826 C79.7143879,18.238 83.6973879,25.065 85.7053879,32.708 C82.6893879,33.638 71.7143879,37.007 72.8903879,36.396 C72.3970545,36.4306667 71.9534487,39.175 71.5595703,44.629 Z" id="Fill-1"></path>
        </g>
    </g>
</svg>