<?xml version="1.0" encoding="UTF-8"?>
<svg width="83px" height="83px" viewBox="0 0 83 83" version="1.1" xmlns="http://www.w3.org/2000/svg" xmlns:xlink="http://www.w3.org/1999/xlink">
    <!-- Generator: Sketch 50.2 (55047) - http://www.bohemiancoding.com/sketch -->
    <title>Fill 1</title>
    <desc>Created with Sketch.</desc>
    <defs></defs>
    <g id="Page-1" stroke="none" stroke-width="1" fill="none" fill-rule="evenodd">
        <g id="Artboard-1" fill="#FFFFFF">
            <path d="M7.7811,83.0001 C5.7031,83.0001 3.7481,82.1891 2.2801,80.7191 C0.8111,79.2501 0.0001,77.2951 0.0001,75.2191 L0.0001,0.0001 L5.1871,0.0001 L5.1871,75.2191 C5.1871,75.9091 5.4591,76.5611 5.9471,77.0531 C6.4371,77.5411 7.0891,77.8131 7.7811,77.8131 L83.0001,77.8131 L83.0001,83.0001 L7.7811,83.0001 Z M70.0301,77.8164063 L70.0301,25.9781 C70.0301,25.2871 69.7601,24.6351 69.2701,24.1441 C68.7801,23.6541 68.1281,23.3841 67.4361,23.3841 L66.6291,23.3841 L64.8431,23.3841 C64.1491,23.3841 63.5001,23.6531 63.0091,24.1441 C62.5191,24.6351 62.2491,25.2871 62.2491,25.9781 L62.2491,77.8164063 L57.0611,77.8164063 L57.0611,25.9781 C57.0611,23.9001 57.8721,21.9461 59.3411,20.4751 C60.8101,19.0081 62.7631,18.1971 64.8431,18.1971 L67.4361,18.1971 C69.5141,18.1971 71.4691,19.0081 72.9381,20.4751 C74.4081,21.9461 75.2171,23.9001 75.2171,25.9781 L75.2171,77.8131 L70.0301,77.8164063 Z M46.7551,77.8164062 L46.7551,8.0241 C46.7551,7.3321 46.4851,6.6821 45.9951,6.1901 C45.5031,5.7011 44.8531,5.4301 44.1611,5.4301 L43.3541,5.4301 L41.5671,5.4301 C40.8741,5.4301 40.2251,5.6981 39.7341,6.1901 C39.2431,6.6821 38.9741,7.3321 38.9741,8.0241 L38.9741,77.8131 L33.7861,77.8131 L33.7861,8.0241 C33.7861,5.9471 34.5971,3.9911 36.0661,2.5221 C37.5351,1.0531 39.4881,0.2431 41.5671,0.2431 L44.1611,0.2431 C46.2381,0.2431 48.1941,1.0531 49.6631,2.5221 C51.1321,3.9911 51.9421,5.9471 51.9421,8.0241 L51.9421,77.8131 L46.7551,77.8164062 Z M23.2891,77.8164062 L23.2891,49.3221 C23.2891,48.6301 23.0201,47.9791 22.5291,47.4881 C22.0391,46.9991 21.3871,46.7281 20.6961,46.7281 L19.8881,46.7281 L18.1021,46.7281 C17.4091,46.7281 16.7601,46.9961 16.2681,47.4881 C15.7781,47.9791 15.5081,48.6301 15.5081,49.3221 L15.5081,77.8164062 L10.3211,77.8164062 L10.3211,49.3221 C10.3211,47.2451 11.1311,45.2891 12.6001,43.8201 C14.0691,42.3511 16.0221,41.5401 18.1021,41.5401 L20.6961,41.5401 C22.7741,41.5401 24.7281,42.3511 26.1971,43.8201 C27.6681,45.2891 28.4771,47.2451 28.4771,49.3221 L28.4771,77.8164062 L23.2891,77.8164062 Z" id="Fill-1"></path>
        </g>
    </g>
</svg>