<svg xmlns="http://www.w3.org/2000/svg" width="32.719" height="27" viewBox="0 0 32.719 27">
  <defs>
    <style>
      .cls-1 {
        fill: #fff;
        fill-rule: evenodd;
      }
    </style>
  </defs>
  <path id="Tickets" class="cls-1" d="M8.485,11.111H16.97a0.593,0.593,0,1,0,0-1.185H8.485A0.593,0.593,0,1,0,8.485,11.111Zm0,2.37h6.061a0.593,0.593,0,1,0,0-1.185H8.485A0.593,0.593,0,1,0,8.485,13.481Zm0,2.371h6.061a0.593,0.593,0,1,0,0-1.185H8.485A0.593,0.593,0,1,0,8.485,15.852Zm0,2.37h6.061a0.593,0.593,0,1,0,0-1.185H8.485A0.593,0.593,0,1,0,8.485,18.222Zm0,2.37h6.061a0.593,0.593,0,1,0,0-1.185H8.485A0.593,0.593,0,1,0,8.485,20.593Zm8.485,3.555H8.485a0.593,0.593,0,1,0,0,1.185H16.97A0.593,0.593,0,1,0,16.97,24.148ZM8.485,22.963h6.061a0.593,0.593,0,1,0,0-1.185H8.485A0.593,0.593,0,1,0,8.485,22.963ZM28.908,4H3.819A3.782,3.782,0,0,0,0,7.735v3.16a0.761,0.761,0,0,1,.4-0.08,1.185,1.185,0,1,1,0,2.37,0.757,0.757,0,0,1-.4-0.08v3.715a0.758,0.758,0,0,1,.4-0.08,1.185,1.185,0,1,1,0,2.37,1.212,1.212,0,0,1-.4-0.08v3.715a1.219,1.219,0,0,1,.4-0.08,1.185,1.185,0,1,1,0,2.37,1.217,1.217,0,0,1-.4-0.08v2.567A3.737,3.737,0,0,0,4,31H29a3.494,3.494,0,0,0,3.727-3.476V24.957a1.217,1.217,0,0,1-.4.08,1.185,1.185,0,1,1,0-2.37,1.219,1.219,0,0,1,.4.08V19.031a1.212,1.212,0,0,1-.4.08,1.185,1.185,0,1,1,0-2.37,1.212,1.212,0,0,1,.4.08V13.105a1.212,1.212,0,0,1-.4.08,1.185,1.185,0,1,1,0-2.37,1.219,1.219,0,0,1,.4.08V7.735A3.782,3.782,0,0,0,28.908,4ZM16,29H4a1.647,1.647,0,0,1-1.576-1.476V26.806a3.507,3.507,0,0,0,0-5.908V20.88A3.534,3.534,0,0,0,4.04,17.926a3.057,3.057,0,0,0-1.616-2.954V14.954A3.057,3.057,0,0,0,4.04,12,3.057,3.057,0,0,0,2.424,9.046V7.735A1.9,1.9,0,0,1,4,6H24V29H16ZM30.3,9.046a3.507,3.507,0,0,0,0,5.908v0.018a3.507,3.507,0,0,0,0,5.907V20.9a3.507,3.507,0,0,0,0,5.908v0.719A1.4,1.4,0,0,1,29,29H26V6h3a1.668,1.668,0,0,1,1.3,1.735V9.046Z" transform="translate(0 -4)"/>
</svg>
