<?xml version="1.0" encoding="utf-8"?>
<!-- Generator: Adobe Illustrator 20.1.0, SVG Export Plug-In . SVG Version: 6.00 Build 0)  -->
<svg version="1.1" id="图层_1" xmlns="http://www.w3.org/2000/svg" xmlns:xlink="http://www.w3.org/1999/xlink" x="0px" y="0px"
	 viewBox="0 0 30 30.5" style="enable-background:new 0 0 30 30.5;" xml:space="preserve">
<g>
	
		<image style="display:none;overflow:visible;" width="30" height="30"  transform="matrix(1 0 0 1 0 0.4568)">
	</image>
	<g>
		<defs>
			<path id="SVGID_1_" d="M28,30.5H4c-1.1,0-2-0.9-2-2v-1H1c-0.6,0-1-0.4-1-1v-4c0-0.6,0.4-1,1-1h1v-12H1c-0.6,0-1-0.4-1-1v-4
				c0-0.6,0.4-1,1-1h1v-1c0-1.1,0.9-2,2-2h24c1.1,0,2,0.9,2,2v26C30,29.6,29.1,30.5,28,30.5L28,30.5z M28,2.5H4v26h24V2.5L28,2.5z"
				/>
		</defs>
		<use xlink:href="#SVGID_1_"  style="overflow:visible;fill-rule:evenodd;clip-rule:evenodd;fill:#FFFFFF;"/>
		<clipPath id="SVGID_2_">
			<use xlink:href="#SVGID_1_"  style="overflow:visible;"/>
		</clipPath>
	</g>
	<g>
		<defs>
			<path id="SVGID_3_" d="M6,26.5v-22h20v22H6L6,26.5z M24,6.5H8v18h16V6.5L24,6.5z"/>
		</defs>
		<use xlink:href="#SVGID_3_"  style="overflow:visible;fill-rule:evenodd;clip-rule:evenodd;fill:#FFFFFF;"/>
		<clipPath id="SVGID_4_">
			<use xlink:href="#SVGID_3_"  style="overflow:visible;"/>
		</clipPath>
	</g>
	<g>
		<defs>
			<polygon id="SVGID_5_" points="24,13.5 24,14.5 19,14.5 19,10.5 24,10.5 24,11.5 20,11.5 20,13.5 24,13.5 			"/>
		</defs>
		<use xlink:href="#SVGID_5_"  style="overflow:visible;fill-rule:evenodd;clip-rule:evenodd;fill:#FFFFFF;"/>
		<clipPath id="SVGID_6_">
			<use xlink:href="#SVGID_5_"  style="overflow:visible;"/>
		</clipPath>
	</g>
	<g>
		<defs>
			<path id="SVGID_7_" d="M16,16.5c-2.2,0-4-1.8-4-4c0-2.2,1.8-4,4-4c2.2,0,4,1.8,4,4C20,14.7,18.2,16.5,16,16.5L16,16.5z M16,10.5
				c-1.1,0-2,0.9-2,2c0,1.1,0.9,2,2,2c1.1,0,2-0.9,2-2C18,11.4,17.1,10.5,16,10.5L16,10.5z"/>
		</defs>
		<use xlink:href="#SVGID_7_"  style="overflow:visible;fill-rule:evenodd;clip-rule:evenodd;fill:#FFFFFF;"/>
		<clipPath id="SVGID_8_">
			<use xlink:href="#SVGID_7_"  style="overflow:visible;"/>
		</clipPath>
	</g>
	<g>
		<defs>
			<path id="SVGID_9_" d="M19.5,19.5c0.8,0,1.5,0.7,1.5,1.5c0,0.8-0.7,1.5-1.5,1.5c-0.8,0-1.5-0.7-1.5-1.5
				C18,20.1,18.7,19.5,19.5,19.5L19.5,19.5z"/>
		</defs>
		<use xlink:href="#SVGID_9_"  style="overflow:visible;fill-rule:evenodd;clip-rule:evenodd;fill:#FFFFFF;"/>
		<clipPath id="SVGID_10_">
			<use xlink:href="#SVGID_9_"  style="overflow:visible;"/>
		</clipPath>
	</g>
</g>
</svg>
