<?xml version="1.0" encoding="UTF-8"?>
<svg width="41px" height="41px" viewBox="0 0 41 41" version="1.1" xmlns="http://www.w3.org/2000/svg" xmlns:xlink="http://www.w3.org/1999/xlink">
    <!-- Generator: Sketch 50.2 (55047) - http://www.bohemiancoding.com/sketch -->
    <title>Artboard 1</title>
    <desc>Created with Sketch.</desc>
    <defs></defs>
    <g id="Artboard-1" stroke="none" stroke-width="1" fill="none" fill-rule="evenodd">
        <path d="M15.511,5.04485342e-13 L1.24344979e-14,2.875 L6.084,34.983 L11.178,34.039 L13.404,34.441 L24.91,40.999 L40.999,12.456 L29.398,6.055 L29.718,4.169 L15.864,1.864 L15.511,5.04485342e-13 Z M2.259,4.406 L13.965,2.236 L15.074,8.087 L3.393,10.387 L2.259,4.406 Z M16.244,3.869 L27.487,5.741 L26.506,11.515 L17.451,10.235 L17.085,8.304 L17.687,4.781 L17.211,4.702 L16.827,6.944 L16.244,3.869 Z M29.057,8.061 L38.365,13.196 L35.491,18.294 L28.011,14.214 L28.647,10.47 L29.456,9.039 L29.035,8.805 L28.885,9.07 L29.057,8.061 Z M15.163,8.557 L19.336,30.577 L11.181,32.091 L11.178,32.09 L11.178,32.091 L7.632,32.749 L3.482,10.858 L15.163,8.557 Z M21.597,32.107 L17.545,10.733 L26.426,11.986 L22.655,34.164 L16.501,33.052 L21.597,32.107 Z M27.926,14.714 L35.255,18.713 L24.173,38.369 L19.082,35.466 L24.24,36.398 L27.926,14.714 Z M11.932,3.211 L12.796,7.896 L13.273,7.81 L12.408,3.126 L11.932,3.211 Z M9.821,3.629 L10.703,8.31 L11.18,8.221 L10.297,3.541 L9.821,3.629 Z M7.226,4.158 L8.126,8.785 L8.6,8.693 L7.701,4.066 L7.226,4.158 Z M5.163,4.627 L6.03,9.21 L6.506,9.121 L5.639,4.54 L5.163,4.627 Z M2.782,5.022 L3.682,9.649 L4.157,9.557 L3.257,4.932 L2.782,5.022 Z M18.516,9.722 L18.992,9.803 L19.812,5.112 L19.336,5.03 L18.516,9.722 Z M21.151,10.127 L21.631,10.203 L22.397,5.553 L21.919,5.477 L21.151,10.127 Z M23.51,10.516 L23.986,10.596 L24.769,5.998 L24.293,5.918 L23.51,10.516 Z M25.625,10.831 L26.104,10.907 L26.871,6.259 L26.392,6.18 L25.625,10.831 Z M28.56,13.969 L28.982,14.203 L31.347,10.056 L30.925,9.82 L28.56,13.969 Z M30.909,15.225 L31.333,15.456 L33.632,11.33 L33.209,11.098 L30.909,15.225 Z M32.997,16.375 L33.421,16.608 L35.717,12.537 L35.294,12.302 L32.997,16.375 Z M34.884,17.373 L35.307,17.604 L37.607,13.477 L37.183,13.247 L34.884,17.373 Z M5.965,16.494 L9.1,31.642 L9.575,31.546 L6.439,16.398 L5.965,16.494 Z M8.328,19.174 L10.767,31.298 L11.24,31.205 L8.802,19.08 L8.328,19.174 Z M10.79,24.261 L12.134,31.028 L12.609,30.937 L11.266,24.169 L10.79,24.261 Z" id="Fill-1" fill="#FFFFFF"></path>
    </g>
</svg>