<?xml version="1.0" encoding="UTF-8"?>
<svg width="36px" height="36px" viewBox="0 0 36 36" version="1.1" xmlns="http://www.w3.org/2000/svg" xmlns:xlink="http://www.w3.org/1999/xlink">
    <!-- Generator: Sketch 40.1 (33804) - http://www.bohemiancoding.com/sketch -->
    <title>Slice 1</title>
    <desc>Created with Sketch.</desc>
    <defs></defs>
    <g id="Page-1" stroke="none" stroke-width="1" fill="none" fill-rule="evenodd" fill-opacity="0">
        <path d="M19.591043,8.92555941 L9.26248071,19.2704668 C9.26248071,19.2704668 10.7366821,20.762249 13.2217014,23.4160751 C14.3626993,24.6345808 16.5824781,26.8664866 16.5824781,26.8664866 L27.257716,16.6143776 L19.591043,8.92555941 Z M30.242,10.893 C28.7824559,11.9926816 26.7359035,11.8494991 25.4437022,10.5572978 C24.1515009,9.26509647 24.0083184,7.21854408 25.108,5.759 L21.349,2 L2,21.35 L5.758,25.109 C7.21705222,24.0065965 9.26547919,24.1484198 10.5586881,25.4413768 C11.8518969,26.7343338 11.9941193,28.7827331 10.892,30.242 L14.651,34 L34,14.651 L30.242,10.893 Z" id="形状_8" stroke="#F0F3F7" stroke-width="2" fill="#F0F3F7"></path>
    </g>
</svg>