<?xml version="1.0" encoding="utf-8"?>
<!-- Generator: Adobe Illustrator 20.1.0, SVG Export Plug-In . SVG Version: 6.00 Build 0)  -->
<svg version="1.1" id="图层_1" xmlns="http://www.w3.org/2000/svg" xmlns:xlink="http://www.w3.org/1999/xlink" x="0px" y="0px"
	 viewBox="0 0 43.2 35.9" style="enable-background:new 0 0 43.2 35.9;" xml:space="preserve">
<g>
	
		<image style="display:none;overflow:visible;" width="48" height="48"   transform="matrix(1 0 0 1 -1.9705 -6.4765)">
	</image>
	<g>
		<defs>
			<path id="SVGID_1_" d="M22.3,9.5H11.7c-0.4,0-0.8-0.3-0.8-0.7c0-0.4,0.3-0.7,0.8-0.7h10.6c0.4,0,0.8,0.3,0.8,0.7
				C23.1,9.1,22.7,9.5,22.3,9.5L22.3,9.5z M19.3,12.5h-7.6c-0.4,0-0.8-0.3-0.8-0.7c0-0.4,0.3-0.7,0.8-0.7h7.6c0.4,0,0.8,0.3,0.8,0.7
				C20,12.1,19.7,12.5,19.3,12.5L19.3,12.5z M19.3,15.4h-7.6c-0.4,0-0.8-0.3-0.8-0.7c0-0.4,0.3-0.7,0.8-0.7h7.6
				c0.4,0,0.8,0.3,0.8,0.7C20,15.1,19.7,15.4,19.3,15.4L19.3,15.4z M19.3,18.4h-7.6c-0.4,0-0.8-0.3-0.8-0.7c0-0.4,0.3-0.7,0.8-0.7
				h7.6c0.4,0,0.8,0.3,0.8,0.7C20,18.1,19.7,18.4,19.3,18.4L19.3,18.4z M19.3,21.4h-7.6c-0.4,0-0.8-0.3-0.8-0.7
				c0-0.4,0.3-0.7,0.8-0.7h7.6c0.4,0,0.8,0.3,0.8,0.7C20,21.1,19.7,21.4,19.3,21.4L19.3,21.4z M22.3,27.4H11.7
				c-0.4,0-0.8-0.3-0.8-0.7c0-0.4,0.3-0.7,0.8-0.7h10.6c0.4,0,0.8,0.3,0.8,0.7C23.1,27.1,22.7,27.4,22.3,27.4L22.3,27.4z M19.3,24.4
				h-7.6c-0.4,0-0.8-0.3-0.8-0.7s0.3-0.7,0.8-0.7h7.6c0.4,0,0.8,0.3,0.8,0.7S19.7,24.4,19.3,24.4L19.3,24.4z M37.4,34.5h-15h-1.3H6
				c-2.6,0-5-1.8-5-4.4v-0.2v-3C1.2,27,1.4,27,1.5,27c0.8,0,1.5-0.7,1.5-1.5c0-0.8-0.7-1.5-1.5-1.5c-0.2,0-0.3,0-0.5,0.1v-1.5v-0.1
				v-3c0.2,0.1,0.3,0.1,0.5,0.1c0.8,0,1.5-0.7,1.5-1.5c0-0.8-0.7-1.5-1.5-1.5c-0.2,0-0.5,0-0.5,0.1v-3v-0.1V12
				c0,0.1,0.3,0.1,0.5,0.1c0.8,0,1.5-0.7,1.5-1.5S2.4,9.1,1.5,9.1C1.4,9.1,1,9.1,1,9.2v-3V5.2c0-2.6,2.1-4.7,4.8-4.7h15h1.5h15
				c2.6,0,4.8,2.1,4.8,4.7v0.9v3c-0.2-0.1-0.3-0.1-0.5-0.1c-0.8,0-1.5,0.7-1.5,1.5s0.7,1.5,1.5,1.5c0.2,0,0.3,0,0.5-0.1v1.5v0.1v3
				c-0.2-0.1-0.3-0.1-0.5-0.1c-0.8,0-1.5,0.7-1.5,1.5c0,0.8,0.7,1.5,1.5,1.5c0.2,0,0.3,0,0.5-0.1v3v0.1v1.5
				c-0.2-0.1-0.3-0.1-0.5-0.1c-0.8,0-1.5,0.7-1.5,1.5c0,0.8,0.7,1.5,1.5,1.5c0.2,0,0.3,0,0.5-0.1v3v0.2C42,32.7,40,34.5,37.4,34.5
				L37.4,34.5z M31.1,3h-8.8h-1.3H6c-1,0-2,1.2-2,2.2v1.7c1.5,0.8,2,2.2,2,3.7c0,1.5-0.5,2.9-2,3.7v0c1.5,0.8,2,2.2,2,3.7
				c0,1.5-0.8,2.9-2,3.7v0c1.2,0.8,2,2.2,2,3.7c0,1.5-0.8,2.9-2,3.7v0.9c0,0.9,1,1.9,2,1.9h15h1.3h8.8V3L31.1,3z M39,29.2
				c-1.2-0.8-2-2.2-2-3.7c0-1.5,0.8-2.9,2-3.7v0c-1.2-0.8-2-2.2-2-3.7c0-1.5,0.8-2.9,2-3.7v0c-1.2-0.8-2-2.2-2-3.7
				c0-1.5,0.8-2.9,2-3.7V5.2C39,4.3,38.3,3,37.4,3h-3.8v29h3.8c1,0,1.6-0.9,1.6-1.9V29.2L39,29.2z"/>
		</defs>
		<use xlink:href="#SVGID_1_"  style="overflow:visible;fill:#343A40;"/>
		<clipPath id="SVGID_2_">
			<use xlink:href="#SVGID_1_"  style="overflow:visible;"/>
		</clipPath>
		<g style="display:none;clip-path:url(#SVGID_2_);">
			
				<image style="display:inline;overflow:visible;" width="48" height="48"   transform="matrix(1 0 0 1 -1.9705 -6.4765)">
			</image>
		</g>
	</g>
</g>
</svg>
