<?xml version="1.0" encoding="utf-8"?>
<!-- Generator: Adobe Illustrator 20.1.0, SVG Export Plug-In . SVG Version: 6.00 Build 0)  -->
<svg version="1.1" id="图层_1" xmlns="http://www.w3.org/2000/svg" xmlns:xlink="http://www.w3.org/1999/xlink" x="0px" y="0px"
	 viewBox="0 0 87 89" style="enable-background:new 0 0 87 89;" xml:space="preserve">
<style type="text/css">
	.st0{fill:#343A40;}
</style>
<title>Fill-1</title>
<desc>Created with Sketch.</desc>
<g id="Page-1">
	<g id="筹码-足球">
		<path id="Fill-1" class="st0" d="M85.3,34.3c0,0,2.2,11.2,0.2,19.7c-0.4,0.1-2.8-0.7-2.8-0.7s1.6-13.2-0.3-16.9
			C82.2,34.7,85.3,34.3,85.3,34.3z M70.9,75.1c1.3-1.1,3.1,1.6,3.1,1.6s-8.8,7.2-17.1,9.4c-0.3-0.4-0.7-2.8-0.7-2.8
			S68.5,78.5,70.9,75.1z M15.9,74.5c0,0,10.4,8.1,14.5,8.4c1.6,0.6,0.3,3.5,0.3,3.5S20,82.5,13.8,76.5C14,76.1,15.9,74.5,15.9,74.5z
			 M3.6,51.8c0.3,1.7-2.9,2-2.9,2s-1.8-11.3,0.3-19.7c0.4-0.1,2.8,0.8,2.8,0.8S1.9,48,3.6,51.8z M16.7,13.6
			c-1.3,1.1-3.1-1.5-3.1-1.5s8.7-7.3,16.9-9.7c0.3,0.4,0.7,2.8,0.7,2.8S19.1,10.2,16.7,13.6z M70.7,14.1c0,0-10.3-8.1-14.5-8.5
			c-1.6-0.6-0.3-3.5-0.3-3.5S66.5,6,72.7,12C72.5,12.4,70.7,14.1,70.7,14.1z M61.5,54.3c1.5-2.7,2.4-5.8,2.6-9l-5.1-6.3l-8.2,2.9
			l-2.6,8.1l5,6.5l7.5-2.5L61.5,54.3z M51.2,24.1L43.7,27v8.7l6.7,5l8.2-2.9l0.3-7.9C56.9,27.4,54.2,25.4,51.2,24.1z M39.1,50.5
			l-4.9,6.6l4.4,7.3h9.3l4.5-7.3l-5-6.5H39.1z M42.7,27l-7.4-2.9c-3.1,1.3-5.9,3.4-8.1,6l0.4,8.1l8.3,2.5l6.7-5V27z M24.9,54.2
			l1-0.5l7.4,2.7l4.9-6.5l-2.6-8.1l-8.3-2.5l-4.9,6.3C22.6,48.7,23.5,51.6,24.9,54.2z M43.2,66.4c-12.1,0-22-10.1-22-22.5
			s9.9-22.5,22-22.5c12.1,0,22,10.1,22,22.5S55.3,66.4,43.2,66.4z M43.1,18c-14,0-25.3,11.5-25.3,25.8s11.3,25.8,25.3,25.8
			c14,0,25.3-11.5,25.3-25.8S57,18,43.1,18z M71.6,44.6c-0.2,4.5,0.2,7,1.3,7.6c1.1,0.6,8.3,2.3,12.7,3.5c-2,7.3-5.8,13.9-10.9,19.1
			c-2.8-3.2-8.6-9.2-7.6-8.5c-0.4-0.7-5.3,1.6-8.3,3.2S53,74,53,74.2c-0.1,1.4,1.3,7.9,2,12.3c-3.6,1-7.5,1.5-11.4,1.5
			c-3.9,0-7.6-0.5-11.2-1.5c0.8-3.8,3-13.6,3-12.4c0.2-0.5-2-2-6.7-4.6c-3.7-2.3-6.1-3.2-7.1-2.5c-1,0.6-5.3,4.9-8.5,8.3
			C7.6,70,3.7,63.2,1.6,55.7c3.9-1.2,13-4,11.9-3.4c0.5,0,0.8-2.6,0.9-7.6c0.5-4.9,0.2-7.6-0.9-8.2c-1.1-0.6-7.6-2.1-12.1-3.3
			c1.9-7.6,5.8-14.4,11.1-19.9c2.9,2.7,10,9.5,8.9,8.8c0.4,0.6,3.9-1.1,7.1-3c3.5-2.1,6.5-3,6.5-4.9c0-1.3-2-7.9-3.2-12.4
			C35.6,0.6,39.6,0,43.6,0c3.8,0,7.5,0.5,11,1.4c-0.8,3.5-3.4,14-3.3,12.7c-0.2,0.4,1.7,2,5.9,4.8c4,2.8,6.5,3.9,7.6,3.3
			c1.1-0.7,6.3-6.1,9.5-9.4c5.4,5.4,9.4,12.2,11.4,19.9c-3,0.9-14,4.3-12.8,3.7C72.4,36.4,72,39.2,71.6,44.6z"/>
	</g>
</g>
</svg>
